<svg
  viewBox="0 0 32 32"
  fill="none"
  xmlns="http://www.w3.org/2000/svg"
>
  <path
    fill-rule="evenodd"
    clip-rule="evenodd"
    d="M3.96967 3.96967C4.26256 3.67678 4.73744 3.67678 5.03033 3.96967L16 14.9393L26.9697 3.96967C27.2626 3.67678 27.7374 3.67678 28.0303 3.96967C28.3232 4.26256 28.3232 4.73744 28.0303 5.03033L17.0607 16L28.0303 26.9697C28.3232 27.2626 28.3232 27.7374 28.0303 28.0303C27.7374 28.3232 27.2626 28.3232 26.9697 28.0303L16 17.0607L5.03033 28.0303C4.73744 28.3232 4.26256 28.3232 3.96967 28.0303C3.67678 27.7374 3.67678 27.2626 3.96967 26.9697L14.9393 16L3.96967 5.03033C3.67678 4.73744 3.67678 4.26256 3.96967 3.96967Z"
    fill="currentColor"
  />
</svg>
