<svg viewBox="0 0 50 52" xmlns="http://www.w3.org/2000/svg">
  <mask
    id="mask0"
    mask-type="alpha"
    maskUnits="userSpaceOnUse"
    x="0"
    y="0"
    width="51"
    height="52"
  >
    <path
      fill-rule="evenodd"
      clip-rule="evenodd"
      d="M0.000488281 0.682617H50.0002V51.8569H0.000488281V0.682617Z"
      fill="white"
    />
  </mask>
  <g mask="url(#mask0)">
    <path
      fill-rule="evenodd"
      clip-rule="evenodd"
      d="M44.9188 29.3615H39.5705V31.5539H44.2055V33.8539H39.5705V38.4708H36.7505V26.905H44.9188V29.3615ZM22.8172 32.067C22.3272 33.5897 20.9405 34.463 19.0138 34.463H16.6488V38.4708H13.8255V26.905H19.0122C20.9355 26.905 22.3205 27.7766 22.8155 29.2925C23.1122 30.196 23.1122 31.1534 22.8172 32.067V32.067ZM33.6072 36.7916C32.6722 37.9071 31.3522 38.4708 29.6822 38.4708H24.7155V26.905H29.6822C31.2022 26.905 32.4922 27.3997 33.4105 28.3419C35.4322 30.4047 35.3338 34.7238 33.6072 36.7916V36.7916ZM40.4272 47.3226H4.49216V5.21706H27.8555L40.4272 17.8984V23.614H8.74549V41.7585H40.4272V47.3226ZM44.9188 23.6156V16.019L29.7155 0.682617H0.000488281V51.8571H44.9188V41.7601H50.0005V23.6156H44.9188Z"
      fill="currentColor"
    />
  </g>
</svg>
