<svg
  viewBox="0 0 23 22"
  xmlns="http://www.w3.org/2000/svg"
>
  <path
    fill-rule="evenodd"
    clip-rule="evenodd"
    d="M4.99917 9.35113C6.73917 12.673 9.5425 15.3845 12.9621 17.0865L15.6204 14.5042C15.9467 14.1872 16.43 14.0816 16.8529 14.2224C18.2062 14.6567 19.6683 14.8915 21.1667 14.8915C21.8312 14.8915 22.375 15.4197 22.375 16.0653V20.1619C22.375 20.8075 21.8312 21.3357 21.1667 21.3357C9.82042 21.3357 0.625 12.403 0.625 1.38096C0.625 0.735368 1.16875 0.207153 1.83333 0.207153H6.0625C6.72708 0.207153 7.27083 0.735368 7.27083 1.38096C7.27083 2.84822 7.5125 4.2568 7.95958 5.57146C8.0925 5.9823 7.99583 6.44008 7.6575 6.76875L4.99917 9.35113Z"
    fill="currentColor"
  />
</svg>
