<svg viewBox="0 0 32 32" fill="none" xmlns="http://www.w3.org/2000/svg">
  <path
    d="M15.75 10C15.75 9.58579 15.4142 9.25 15 9.25C14.5858 9.25 14.25 9.58579 14.25 10V14.25H10C9.58579 14.25 9.25 14.5858 9.25 15C9.25 15.4142 9.58579 15.75 10 15.75H14.25V20C14.25 20.4142 14.5858 20.75 15 20.75C15.4142 20.75 15.75 20.4142 15.75 20V15.75H20C20.4142 15.75 20.75 15.4142 20.75 15C20.75 14.5858 20.4142 14.25 20 14.25H15.75V10Z"
    fill="currentColor"
  />
  <path
    fill-rule="evenodd"
    clip-rule="evenodd"
    d="M26.5 15C26.5 17.9057 25.4223 20.5598 23.6449 22.5842L28.0303 26.9697C28.3232 27.2626 28.3232 27.7374 28.0303 28.0303C27.7374 28.3232 27.2626 28.3232 26.9697 28.0303L22.5842 23.6449C20.5598 25.4223 17.9057 26.5 15 26.5C8.64873 26.5 3.5 21.3513 3.5 15C3.5 8.64873 8.64873 3.5 15 3.5C21.3513 3.5 26.5 8.64873 26.5 15ZM15 25C20.5228 25 25 20.5228 25 15C25 9.47715 20.5228 5 15 5C9.47715 5 5 9.47715 5 15C5 20.5228 9.47715 25 15 25Z"
    fill="currentColor"
  />
</svg>
